<svg width="921" height="551" viewBox="0 0 921 551" fill="none" xmlns="http://www.w3.org/2000/svg">
<path d="M347.168 199.218V198.218H346.168H314.885V162.121V161.121H313.885H270.557H269.557V162.121V198.218H219.281L304.782 80.5839L305.936 78.9959H303.973H255.831H255.328L255.029 79.3994L161.576 205.135L161.379 205.401V205.732V236.599V237.599H162.379H268.141V278.228V279.228H269.141H313.885H314.885V278.228V237.599H346.168H347.168V236.599V199.218ZM734.617 199.218V198.218H733.617H702.333V162.121V161.121H701.333H658.005H657.005V162.121V198.218H606.729L692.231 80.5839L693.385 78.9959H691.422H643.28H642.777L642.477 79.3994L549.025 205.135L548.827 205.401V205.732V236.599V237.599H549.827H655.589V278.228V279.228H656.589H701.333H702.333V278.228V237.599H733.617H734.617V236.599V199.218ZM444.846 282.626C469.609 282.626 491.133 273.242 506.452 255.555C521.761 237.88 530.803 211.998 530.803 179.112C530.803 146.225 521.761 120.344 506.452 102.669C491.133 84.9815 469.609 75.5977 444.846 75.5977C420.223 75.5977 398.701 84.9823 383.347 102.668C368.003 120.342 358.89 146.223 358.89 179.112C358.89 212 368.003 237.881 383.347 255.556C398.701 273.242 420.223 282.626 444.846 282.626ZM444.846 241.829C433.84 241.829 424.532 237.313 417.928 227.305C411.286 217.237 407.333 201.534 407.333 179.112C407.333 156.689 411.286 140.987 417.928 130.919C424.532 120.911 433.84 116.394 444.846 116.394C455.999 116.394 465.377 120.914 472.013 130.921C478.69 140.988 482.643 156.689 482.643 179.112C482.643 201.535 478.69 217.236 472.013 227.303C465.377 237.309 455.999 241.829 444.846 241.829Z" fill="#1FA45B" fill-opacity="0.22" stroke="#1FA45B" stroke-width="2"/>
<path d="M70.8718 45.5065L119.26 17.5696L119.26 73.4434L70.8718 45.5065Z" stroke="#CEEBDB" stroke-opacity="0.8"/>
<path d="M26.4452 353.231L80.2645 373.771L35.5663 410.11L26.4452 353.231Z" fill="#CEEBDB" fill-opacity="0.4"/>
<path d="M77.9954 509.243L103.545 533.754L62.3778 541.018L77.9954 509.243Z" fill="#CEEBDB" fill-opacity="0.4"/>
<line x1="735.844" y1="54.8242" x2="712.911" y2="94.5449" stroke="#CEEBDB" stroke-opacity="0.8"/>
<line x1="920.564" y1="379.437" x2="895.396" y2="397.6" stroke="#CEEBDB" stroke-opacity="0.8"/>
<rect x="313.913" y="148.25" width="22.08" height="22.08" transform="rotate(-46.0399 313.913 148.25)" stroke="#CEEBDB" stroke-opacity="0.8" stroke-width="1.5"/>
<rect x="200.516" y="101.145" width="15.2636" height="15.2636" transform="rotate(-55.153 200.516 101.145)" stroke="#CEEBDB" stroke-opacity="0.8" stroke-width="1.5"/>
<rect x="77.7871" y="202.402" width="18.3774" height="18.3774" fill="#CEEBDB" fill-opacity="0.4"/>
<rect x="490.515" y="306.918" width="18.3774" height="18.3774" transform="rotate(-45.8502 490.515 306.918)" fill="#CEEBDB" fill-opacity="0.4"/>
<rect x="775.432" y="126.646" width="37.2055" height="37.2055" transform="rotate(-45.8502 775.432 126.646)" stroke="#CEEBDB" stroke-opacity="0.8"/>
<circle cx="579.732" cy="99.2417" r="17.0112" stroke="#CEEBDB" stroke-opacity="0.8"/>
<circle cx="895.105" cy="293.732" r="10.884" fill="#CEEBDB" fill-opacity="0.4"/>
</svg>
